<svg width="124" height="45" viewBox="0 0 124 45" fill="none" xmlns="http://www.w3.org/2000/svg">
<path d="M123.111 36.559V44.465H108.469V0.5H116.354V36.559H123.111ZM60.547 22.059C59.937 22.353 59.299 22.499 58.677 22.501V8.361H58.717C59.339 8.356 63.981 8.545 63.981 15.354C63.981 18.913 62.401 21.158 60.547 22.059ZM37.439 30.74L39.622 11.941L41.887 30.74H37.439ZM107.094 8.525V0.507H84.768L81.093 27.286L77.463 0.506H69.411L70.312 7.656C69.384 5.824 66.088 0.506 58.832 0.506C58.785 0.504 50.772 0.506 50.772 0.506L50.741 39.538L44.873 0.507L34.328 0.502L28.256 40.942L28.258 0.507H18.167L14.529 23.224L10.985 0.506H0.888977V44.472H8.83898V23.28L12.457 44.472H16.683L20.248 23.28V44.472H35.575L36.503 37.71H42.673L43.6 44.472L58.647 44.48H58.657V44.472H58.677V30.202L60.522 29.932L64.339 44.482H72.123L72.121 44.472H72.143L67.132 27.424C69.67 25.544 72.538 20.78 71.775 16.221V16.219C71.783 16.277 76.504 44.5 76.504 44.5L85.76 44.473L92.087 4.623V44.473H107.094V36.565H99.97V26.485H107.094V18.455H99.97V8.524L107.094 8.525Z" fill="#f5f5f5"/>
</svg>
