<svg width="26" height="26" viewBox="0 0 26 26" fill="none" xmlns="http://www.w3.org/2000/svg">
<path d="M24.2219 0.354492H1.22192C0.668799 0.354492 0.221924 0.801367 0.221924 1.35449V24.3545C0.221924 24.9076 0.668799 25.3545 1.22192 25.3545H24.2219C24.775 25.3545 25.2219 24.9076 25.2219 24.3545V1.35449C25.2219 0.801367 24.775 0.354492 24.2219 0.354492ZM19.3375 7.65137C17.7719 7.65137 17.4688 8.39512 17.4688 9.48887V11.8982H21.2063L20.7188 15.6701H17.4688V25.3545H13.5719V15.6732H10.3125V11.8982H13.5719V9.11699C13.5719 5.88887 15.5438 4.12949 18.425 4.12949C19.8063 4.12949 20.9907 4.23262 21.3375 4.27949V7.65137H19.3375Z" fill="white"/>
</svg>
