<svg width="33" height="32" viewBox="0 0 33 32" fill="none" xmlns="http://www.w3.org/2000/svg">
<g clip-path="url(#clip0_21_2604)">
<path d="M27.5 13V14C27.4979 15.692 26.8837 17.3261 25.7707 18.6006C24.6578 19.875 23.1213 20.7038 21.445 20.9338C22.1292 21.8093 22.5006 22.8888 22.5 24V29C22.5 29.2652 22.3946 29.5196 22.2071 29.7071C22.0196 29.8947 21.7652 30 21.5 30H13.5C13.2348 30 12.9804 29.8947 12.7929 29.7071C12.6054 29.5196 12.5 29.2652 12.5 29V27H9.5C8.17392 27 6.90215 26.4732 5.96447 25.5356C5.02678 24.5979 4.5 23.3261 4.5 22C4.5 21.2044 4.18393 20.4413 3.62132 19.8787C3.05871 19.3161 2.29565 19 1.5 19C1.23478 19 0.98043 18.8947 0.792893 18.7071C0.605357 18.5196 0.5 18.2652 0.5 18C0.5 17.7348 0.605357 17.4804 0.792893 17.2929C0.98043 17.1054 1.23478 17 1.5 17C2.15661 17 2.80679 17.1293 3.41342 17.3806C4.02005 17.6319 4.57124 18.0002 5.03553 18.4645C5.49983 18.9288 5.86812 19.48 6.1194 20.0866C6.37067 20.6932 6.5 21.3434 6.5 22C6.5 22.7957 6.81607 23.5587 7.37868 24.1213C7.94129 24.6839 8.70435 25 9.5 25H12.5V24C12.4994 22.8888 12.8708 21.8093 13.555 20.9338C11.8787 20.7038 10.3422 19.875 9.22928 18.6006C8.11634 17.3261 7.5021 15.692 7.5 14V13C7.51245 11.7572 7.84341 10.5384 8.46125 9.46002C8.15559 8.47401 8.05754 7.43537 8.17329 6.40958C8.28903 5.3838 8.61606 4.39312 9.13375 3.50002C9.22154 3.34796 9.34781 3.22171 9.49987 3.13393C9.65193 3.04616 9.82443 2.99998 10 3.00002C11.1648 2.99758 12.314 3.2676 13.3558 3.7885C14.3976 4.3094 15.3031 5.06674 16 6.00002H19C19.6969 5.06674 20.6024 4.3094 21.6442 3.7885C22.686 3.2676 23.8352 2.99758 25 3.00002C25.1756 2.99998 25.3481 3.04616 25.5001 3.13393C25.6522 3.22171 25.7785 3.34796 25.8662 3.50002C26.384 4.3931 26.711 5.38383 26.8265 6.40966C26.9421 7.4355 26.8437 8.47414 26.5375 9.46002C27.1565 10.538 27.4879 11.757 27.5 13Z" fill="#EBEBEB"/>
</g>
<defs>
<clipPath id="clip0_21_2604">
<rect width="32" height="32" fill="white" transform="translate(0.5)"/>
</clipPath>
</defs>
</svg>
