<svg width="26" height="26" viewBox="0 0 26 26" fill="none" xmlns="http://www.w3.org/2000/svg">
<path d="M12.7188 6.44078C9.16952 6.44078 6.30509 9.30522 6.30509 12.8545C6.30509 16.4038 9.16952 19.2682 12.7188 19.2682C16.2681 19.2682 19.1325 16.4038 19.1325 12.8545C19.1325 9.30522 16.2681 6.44078 12.7188 6.44078ZM12.7188 17.0229C10.4235 17.0229 8.55036 15.1498 8.55036 12.8545C8.55036 10.5592 10.4235 8.68605 12.7188 8.68605C15.0141 8.68605 16.8872 10.5592 16.8872 12.8545C16.8872 15.1498 15.0141 17.0229 12.7188 17.0229ZM19.3952 4.68335C18.5665 4.68335 17.8973 5.35255 17.8973 6.18123C17.8973 7.00992 18.5665 7.67912 19.3952 7.67912C20.2239 7.67912 20.8931 7.01305 20.8931 6.18123C20.8933 5.98446 20.8547 5.78957 20.7796 5.60773C20.7044 5.42588 20.594 5.26066 20.4549 5.12152C20.3158 4.98238 20.1505 4.87205 19.9687 4.79686C19.7869 4.72168 19.592 4.6831 19.3952 4.68335ZM25.221 12.8545C25.221 11.1283 25.2366 9.4178 25.1397 7.69476C25.0428 5.6934 24.5862 3.9172 23.1227 2.45371C21.6561 0.987099 19.883 0.533668 17.8817 0.436727C16.1555 0.339787 14.445 0.355422 12.7219 0.355422C10.9958 0.355422 9.28523 0.339787 7.56219 0.436727C5.56084 0.533668 3.78464 0.990226 2.32115 2.45371C0.854531 3.92033 0.401099 5.6934 0.304159 7.69476C0.207218 9.42092 0.222854 11.1315 0.222854 12.8545C0.222854 14.5775 0.207218 16.2912 0.304159 18.0142C0.401099 20.0156 0.857658 21.7918 2.32115 23.2553C3.78776 24.7219 5.56084 25.1753 7.56219 25.2723C9.28835 25.3692 10.9989 25.3536 12.7219 25.3536C14.4481 25.3536 16.1586 25.3692 17.8817 25.2723C19.883 25.1753 21.6592 24.7188 23.1227 23.2553C24.5893 21.7887 25.0428 20.0156 25.1397 18.0142C25.2398 16.2912 25.221 14.5807 25.221 12.8545ZM22.4691 20.2282C22.2409 20.7974 21.9657 21.2226 21.5247 21.6604C21.0838 22.1014 20.6617 22.3766 20.0925 22.6048C18.4477 23.2584 14.5419 23.1114 12.7188 23.1114C10.8957 23.1114 6.9868 23.2584 5.34194 22.608C4.7728 22.3797 4.34752 22.1045 3.90972 21.6636C3.4688 21.2226 3.19361 20.8005 2.96533 20.2314C2.31489 18.5834 2.46187 14.6776 2.46187 12.8545C2.46187 11.0314 2.31489 7.12249 2.96533 5.47763C3.19361 4.9085 3.4688 4.48321 3.90972 4.04542C4.35064 3.60762 4.7728 3.32931 5.34194 3.10103C6.9868 2.45059 10.8957 2.59756 12.7188 2.59756C14.5419 2.59756 18.4508 2.45059 20.0957 3.10103C20.6648 3.32931 21.0901 3.60449 21.5279 4.04542C21.9688 4.48634 22.244 4.9085 22.4723 5.47763C23.1227 7.12249 22.9757 11.0314 22.9757 12.8545C22.9757 14.6776 23.1227 18.5834 22.4691 20.2282Z" fill="white"/>
</svg>
