<svg width="18" height="25" viewBox="0 0 18 25" fill="none" xmlns="http://www.w3.org/2000/svg">
<path d="M8.05075 5.29348L4.16527 6.4238L3.06426 14.8631C2.77887 17.0033 3.23284 18.5651 4.21906 19.6236C2.4995 18.537 1.76977 16.5417 2.11978 13.915L3.16701 5.70691L8.17919 4.26712L8.05075 5.29348ZM16.781 2.79562L12.8542 3.92955L11.078 18.305L10.9917 19.0219H9.19672C8.47421 19.0219 7.90865 18.594 7.69511 17.9819C7.86611 18.0413 8.05315 18.0738 8.25264 18.0738H10.03L11.8772 3.20063L16.8886 1.76124L16.781 2.79562Z" fill="black"/>
<path d="M11.8764 3.20062L16.8886 1.76124L14.9346 20.5447H7.93193C3.62621 20.5403 1.58071 17.9823 2.11978 13.915L3.16701 5.70691L8.17919 4.26712L6.66956 16.2788C6.56319 17.2738 7.25679 18.0726 8.25144 18.0738H10.0288L11.8764 3.20062ZM15.5568 21.2733L17.7062 0.854492L11.2366 2.72096L9.40705 17.3633H8.34055C7.73605 17.3633 7.32744 16.8833 7.39848 16.2792L8.97916 3.36118L2.5276 5.22685L1.40892 13.915C0.804824 18.5538 3.31071 21.2733 7.84323 21.2733H15.5568Z" fill="white"/>
<path d="M15.7462 24.2171L15.8707 23.0555H16.0063C16.0858 23.0555 16.142 23.1117 16.1324 23.1959L16.0481 24.0577C16.0384 24.142 15.9991 24.2171 15.8771 24.2171H15.7462ZM14.9226 24.8545H15.9626C16.6233 24.8545 16.8151 24.4234 16.8657 23.8988L16.9131 23.3834C16.9628 22.854 16.6028 22.4277 16.0782 22.4277H15.1742L14.9226 24.8545ZM13.2925 24.8545H14.7118L14.7773 24.2223H14.1684L14.2041 23.8944H14.813L14.8664 23.3886H14.2623L14.2972 23.0559H14.9061L14.9679 22.4281H13.5486L13.2925 24.8545ZM12.1188 23.0555L11.9342 24.8541H12.7446L12.9293 23.0555H13.3226L13.3889 22.4277H11.7961L11.7251 23.0555H12.1188ZM10.5711 24.8545H11.3815L11.6372 22.4281H10.8268L10.5711 24.8545ZM8.11617 24.8545H8.86115L8.95588 23.9128L9.07189 24.8545H9.39982L9.71973 23.9128L9.62018 24.8545H10.3652L10.6209 22.4281H9.83373L9.38136 23.5054L9.15899 22.4281H8.37186L8.11617 24.8545ZM7.09985 24.8545H7.91026L8.16594 22.4281H7.35072L7.09985 24.8545ZM6.9405 24.8545L7.00552 24.2175L6.43795 24.2127L6.60614 22.4281H5.79573L5.54446 24.8545H6.9405ZM3.43675 24.8545H4.21906L4.3463 23.6507L4.55663 24.8545H5.33894L5.59463 22.4281H4.8075L4.68267 23.6178L4.47475 22.4281H3.69243L3.43675 24.8545ZM2.21411 24.8545H3.23043L3.48411 22.4281H2.63838L2.44451 24.2267H2.27592C2.1824 24.2267 2.11376 24.1517 2.12179 24.0581L2.29158 22.4281H1.44625L1.30656 23.6836C1.23311 24.3251 1.66139 24.8545 2.21411 24.8545Z" fill="white"/>
<path d="M14.935 20.5447L16.7814 2.79602L12.8546 3.92995L11.0784 18.3054L10.9921 19.0223H9.19712C8.47461 19.0223 7.90905 18.5944 7.69551 17.9823C7.01234 17.7454 6.58566 17.0751 6.67116 16.2792L8.05155 5.29388L4.16608 6.4242L3.06426 14.8631C2.77887 17.0041 3.23204 18.5651 4.21906 19.6236C5.16273 20.2216 6.40544 20.5427 7.93153 20.5443L14.935 20.5447Z" fill="url(#paint0_linear_31_2607)"/>
<path d="M0.727356 15.5262H17.7167V8.68805H0.727356V15.5262Z" fill="#F0141E"/>
<path d="M17.1936 13.9431V14.9754H15.2834V9.23434H16.3122V13.9431H17.1936ZM9.03175 12.0497C8.95227 12.0878 8.86878 12.1071 8.7877 12.1075V10.2611C8.7889 10.2611 8.79051 10.2611 8.79292 10.2611C8.874 10.2607 9.4797 10.2852 9.4797 11.1743C9.4801 11.6387 9.27379 11.9317 9.03175 12.0497ZM6.0173 13.1828L6.30228 10.7279L6.59771 13.1828H6.0173ZM15.104 10.282V9.23514H12.1915L11.7122 12.7321L11.2386 9.23514H10.1882L10.3058 10.1688C10.1845 9.92955 9.75465 9.23514 8.80817 9.23514C8.80175 9.23474 7.75653 9.23514 7.75653 9.23514L7.75251 14.332L6.98706 9.23514L5.61149 9.23474L4.81954 14.5159V9.23555H3.50298L3.02853 12.2014L2.56613 9.23474H1.24916V14.9758H2.28636V12.2087L2.7584 14.9758H3.30951L3.77472 12.2087V14.9758H5.77405L5.89487 14.0928H6.69966L6.82048 14.9758L8.78529 14.977V14.9758H8.7877V13.1122L9.02813 13.0769L9.52626 14.9766H10.5418L10.5414 14.9754H10.5442L9.89032 12.7493C10.2215 12.5041 10.5956 11.8819 10.496 11.2863C10.496 11.2863 10.496 11.2863 10.496 11.2859C10.4972 11.2935 11.113 14.9791 11.113 14.9791L12.3207 14.9754L13.146 9.77181V14.9754H15.1036V13.9431H14.1744V12.6265H15.1036V11.5781H14.1744V10.2812H15.104V10.282Z" fill="white"/>
<defs>
<linearGradient id="paint0_linear_31_2607" x1="2.72972" y1="26.885" x2="18.2672" y2="2.38591" gradientUnits="userSpaceOnUse">
<stop offset="0.0692" stop-color="#3E37F2"/>
<stop offset="0.9994" stop-color="#0075FF"/>
</linearGradient>
</defs>
</svg>
