<svg width="26" height="26" viewBox="0 0 26 26" fill="none" xmlns="http://www.w3.org/2000/svg">
<path d="M0.221924 12.8545C0.221924 18.1909 3.56672 22.7472 8.27401 24.5399C8.15942 23.5639 8.03755 21.9545 8.30005 20.8253C8.52609 19.8545 9.75942 14.6399 9.75942 14.6399C9.75942 14.6399 9.38755 13.8951 9.38755 12.792C9.38755 11.0628 10.3896 9.77116 11.6386 9.77116C12.7011 9.77116 13.2136 10.568 13.2136 11.5232C13.2136 12.591 12.5334 14.1868 12.1823 15.667C11.8896 16.9055 12.8042 17.9159 14.025 17.9159C16.2365 17.9159 17.9375 15.5837 17.9375 12.217C17.9375 9.23678 15.7959 7.15449 12.7386 7.15449C9.19901 7.15449 7.12088 9.8097 7.12088 12.5545C7.12088 13.6243 7.53234 14.7701 8.04692 15.3941C8.09079 15.4412 8.12179 15.4988 8.13694 15.5614C8.15208 15.624 8.15085 15.6894 8.13338 15.7514C8.03859 16.1451 7.82817 16.9899 7.78755 17.1628C7.73234 17.3899 7.60734 17.4389 7.37088 17.3284C5.81672 16.6055 4.84588 14.3337 4.84588 12.5087C4.84588 8.58262 7.69692 4.97845 13.0667 4.97845C17.3834 4.97845 20.7386 8.05449 20.7386 12.1649C20.7386 16.4535 18.0355 19.9055 14.2813 19.9055C13.0198 19.9055 11.8355 19.2493 11.4292 18.4753C11.4292 18.4753 10.8053 20.8524 10.6542 21.4337C10.3605 22.5628 9.54588 23.992 9.04067 24.8035C10.2053 25.1618 11.4407 25.3545 12.7219 25.3545C19.625 25.3545 25.2219 19.7576 25.2219 12.8545C25.2219 5.95137 19.625 0.354492 12.7219 0.354492C5.8188 0.354492 0.221924 5.95137 0.221924 12.8545Z" fill="white"/>
</svg>
