<svg width="26" height="26" viewBox="0 0 26 26" fill="none" xmlns="http://www.w3.org/2000/svg">
<path fill-rule="evenodd" clip-rule="evenodd" d="M4.22192 0.354492C2.01278 0.354492 0.221924 2.14535 0.221924 4.35449V21.3545C0.221924 23.5636 2.01279 25.3545 4.22192 25.3545H21.2219C23.4311 25.3545 25.2219 23.5636 25.2219 21.3545V4.35449C25.2219 2.14535 23.4311 0.354492 21.2219 0.354492H4.22192ZM20.1757 18.7676C21.5444 18.5561 22.3528 18.2468 22.5132 17.8717C22.5296 17.8334 22.5391 17.7925 22.5413 17.7509C22.5444 17.6968 22.5274 17.6435 22.4935 17.6012C22.4597 17.559 22.4114 17.5306 22.358 17.5217C21.5107 17.3166 20.7222 16.9184 20.0542 16.3583C19.3861 15.7981 18.8566 15.0911 18.5069 14.2925L18.5027 14.2821C18.4282 14.1602 18.3812 14.0235 18.365 13.8815C18.3488 13.7396 18.3638 13.5958 18.409 13.4602C18.585 13.0447 19.168 12.8593 19.5545 12.7364L19.5548 12.7363C19.6422 12.7099 19.7287 12.6807 19.8142 12.6488C20.5132 12.3727 20.6549 12.0873 20.6507 11.8956C20.6323 11.7765 20.5789 11.6656 20.4973 11.5769C20.4157 11.4882 20.3095 11.4258 20.1923 11.3977L20.1871 11.3956C20.0835 11.354 19.9728 11.3327 19.8611 11.3331C19.7626 11.3316 19.6649 11.3511 19.5746 11.3904C19.3018 11.5284 19.0045 11.6112 18.6996 11.6342C18.5238 11.6384 18.352 11.5809 18.2142 11.4717L18.2434 10.9852L18.2465 10.9258C18.4226 9.69155 18.3475 8.43444 18.0256 7.22993C17.6462 6.36532 17.0205 5.63159 16.2268 5.12031C15.433 4.60902 14.5062 4.3428 13.562 4.35489L13.1933 4.35801C12.2504 4.34611 11.3249 4.61224 10.5323 5.12319C9.73981 5.63414 9.11535 6.36725 8.73697 7.23097C8.41529 8.43443 8.34018 9.6905 8.51614 10.9237C8.52864 11.1057 8.53975 11.288 8.54947 11.4706C8.39774 11.5894 8.20732 11.6477 8.01509 11.6342C7.69133 11.6205 7.37436 11.537 7.08591 11.3894C7.01512 11.3581 6.93829 11.3428 6.8609 11.3446C6.70189 11.3384 6.54493 11.3821 6.41196 11.4695C6.27898 11.5569 6.17664 11.6837 6.11923 11.8321C6.04423 12.2269 6.60673 12.5123 6.94841 12.6477C7.03419 12.6799 7.12104 12.709 7.20883 12.7352L7.21515 12.7372C7.60061 12.8601 8.17959 13.0448 8.35468 13.4592C8.39992 13.5949 8.41497 13.7389 8.39877 13.881C8.38258 14.0232 8.33553 14.16 8.26092 14.2821L8.25676 14.2925C8.0038 14.8435 7.67414 15.3559 7.27758 15.8144C6.55704 16.7107 5.53729 17.317 4.40566 17.5217C4.35213 17.5304 4.30374 17.5587 4.26986 17.601C4.23598 17.6434 4.21904 17.6968 4.22232 17.7509C4.22465 17.7918 4.23417 17.832 4.25045 17.8697C4.41087 18.2468 5.22026 18.5572 6.58798 18.7686C6.71611 18.7884 6.77028 18.9968 6.84528 19.3384C6.87419 19.4815 6.90894 19.6233 6.94945 19.7634C6.96326 19.8285 7.00078 19.886 7.05469 19.9249C7.1086 19.9638 7.17505 19.9813 7.24112 19.9739C7.37236 19.9664 7.50271 19.9476 7.63071 19.9176C7.96789 19.8442 8.3117 19.8054 8.65676 19.802C8.90459 19.8026 9.15194 19.8235 9.39636 19.8645C9.91309 19.9956 10.3937 20.2412 10.8026 20.5832C11.4926 21.1725 12.3597 21.5142 13.2662 21.5541C13.2968 21.554 13.3274 21.5526 13.3579 21.5499C13.3954 21.552 13.4454 21.5541 13.4975 21.5541C14.4043 21.5137 15.2717 21.1716 15.9621 20.5822C16.3707 20.2405 16.8509 19.9952 17.3673 19.8645C17.6117 19.8236 17.8591 19.8027 18.1069 19.802C18.4521 19.8038 18.7962 19.8404 19.134 19.9114C19.2621 19.9393 19.3925 19.9557 19.5236 19.9603H19.5444C19.6066 19.9654 19.6685 19.9476 19.7184 19.9101C19.7683 19.8727 19.8027 19.8183 19.8153 19.7572C19.8569 19.6134 19.8882 19.4759 19.9194 19.3353C19.9934 18.9957 20.0476 18.7884 20.1757 18.7676Z" fill="white"/>
</svg>
