<svg width="23" height="26" viewBox="0 0 23 26" fill="none" xmlns="http://www.w3.org/2000/svg">
<path d="M19.8577 5.70066C19.6889 5.61338 19.5247 5.51772 19.3655 5.41402C18.9029 5.10818 18.4788 4.74785 18.1023 4.34079C17.159 3.262 16.8069 2.16766 16.678 1.40217H16.6824C16.5746 0.765565 16.6191 0.354492 16.6269 0.354492H12.3328V16.9563C12.3328 17.1785 12.3328 17.3996 12.3239 17.6173C12.3239 17.644 12.3206 17.6684 12.3195 17.6984C12.3195 17.7095 12.3195 17.7229 12.3162 17.7351V17.7451C12.2711 18.3406 12.0803 18.9159 11.7606 19.4204C11.441 19.9249 11.0022 20.3431 10.483 20.6381C9.9413 20.9463 9.32861 21.1079 8.70539 21.107C6.70558 21.107 5.08351 19.476 5.08351 17.4618C5.08351 15.4464 6.70558 13.8155 8.70539 13.8155C9.08424 13.8155 9.46087 13.8754 9.82084 13.9932L9.82639 9.62029C8.73318 9.47925 7.62259 9.56637 6.56474 9.87615C5.50689 10.1859 4.52475 10.7117 3.6803 11.4201C2.94021 12.0629 2.31797 12.8299 1.84159 13.6866C1.66049 13.9988 0.976113 15.2553 0.893898 17.2929C0.841681 18.4484 1.18943 19.6482 1.35497 20.1426V20.1537C1.45829 20.4448 1.8627 21.4403 2.52041 22.2791C3.0508 22.9524 3.67747 23.5439 4.38024 24.0345V24.0234L4.39024 24.0345C6.46782 25.4455 8.77316 25.3533 8.77316 25.3533C9.17201 25.3366 10.5086 25.3533 12.0262 24.6344C13.7094 23.8367 14.6671 22.6491 14.6671 22.6491C15.2793 21.9393 15.7663 21.1304 16.1069 20.2571C16.4958 19.2349 16.6246 18.0106 16.6246 17.5218V8.7126C16.6769 8.74371 17.3712 9.20255 17.3712 9.20255C17.3712 9.20255 18.3711 9.8436 19.9299 10.2602C21.0476 10.5569 22.5552 10.6202 22.5552 10.6202V6.35726C22.0275 6.41504 20.9554 6.24838 19.8566 5.70177L19.8577 5.70066Z" fill="white"/>
</svg>
