<svg width="26" height="26" viewBox="0 0 26 26" fill="none" xmlns="http://www.w3.org/2000/svg">
<path d="M5.04506 0.354492C2.37324 0.354492 0.222412 2.50532 0.222412 5.17714V20.5318C0.222412 23.2037 2.37324 25.3545 5.04506 25.3545H20.3998C23.0716 25.3545 25.2224 23.2037 25.2224 20.5318V5.17714C25.2224 2.50532 23.0716 0.354492 20.3998 0.354492H5.04506ZM11.0958 3.88964H13.574V8.29434H17.7099V11.0303H13.574V15.499C13.574 16.5091 13.6276 17.158 13.7349 17.4451C13.8416 17.7317 14.0411 17.9605 14.3318 18.1319C14.7174 18.363 15.1578 18.4787 15.6544 18.4787C16.5364 18.4787 17.4142 18.1915 18.2873 17.6178V20.3662C17.5423 20.7169 16.8686 20.9642 16.2654 21.1053C15.6615 21.2464 15.0085 21.317 14.3068 21.317C13.5105 21.317 12.8057 21.2156 12.1935 21.0147C11.5813 20.8132 11.0596 20.5262 10.6271 20.1545C10.1946 19.7817 9.89469 19.3859 9.72789 18.9663C9.56089 18.5471 9.47789 17.939 9.47789 17.1428V11.0303H7.55131V8.56392C8.23576 8.34144 8.82306 8.02332 9.31069 7.60767C9.79906 7.19264 10.1905 6.69389 10.4857 6.11157C10.7813 5.52977 10.9848 4.78854 11.0958 3.88969V3.88964Z" fill="white"/>
</svg>
