<svg width="26" height="22" viewBox="0 0 26 22" fill="none" xmlns="http://www.w3.org/2000/svg">
<path d="M25.2219 3.10139C24.2859 3.51607 23.293 3.78813 22.2763 3.90851C23.3471 3.26775 24.1485 2.25948 24.531 1.0716C23.5245 1.66916 22.423 2.08994 21.2744 2.31571C20.7945 1.80385 20.2146 1.39601 19.5706 1.11744C18.9266 0.838879 18.2323 0.695535 17.5307 0.696292C14.6983 0.696292 12.4016 2.99231 12.4016 5.82531C12.4016 6.22692 12.4471 6.61879 12.5348 6.99442C8.27194 6.78047 4.49286 4.73834 1.96309 1.63489C1.50696 2.41767 1.26728 3.30771 1.26864 4.21369C1.26796 5.05814 1.47589 5.88968 1.87395 6.63443C2.27201 7.37917 2.84787 8.01406 3.55037 8.48268C2.73602 8.45681 1.93961 8.23687 1.2274 7.84114C1.22675 7.86257 1.22675 7.88367 1.22675 7.90575C1.22675 10.3901 2.99454 12.463 5.34056 12.9348C4.58515 13.1393 3.79312 13.1693 3.02441 13.0224C3.67698 15.0597 5.57107 16.5431 7.81546 16.5846C5.99862 18.0104 3.75507 18.7838 1.44558 18.7803C1.03163 18.7803 0.623532 18.7563 0.221924 18.7086C2.56707 20.2154 5.29645 21.0152 8.08396 21.0124C17.518 21.0124 22.6769 13.1974 22.6769 6.42042C22.6769 6.19835 22.6717 5.97661 22.662 5.75616C23.6666 5.03083 24.5336 4.13177 25.2219 3.10139Z" fill="white"/>
</svg>
