<svg width="26" height="18" viewBox="0 0 26 18" fill="none" xmlns="http://www.w3.org/2000/svg">
<path d="M24.7002 2.83092C24.5578 2.30089 24.2788 1.81753 23.891 1.42923C23.5032 1.04092 23.0202 0.761287 22.4903 0.618304C20.54 0.0937501 12.7219 0.09375 12.7219 0.09375C12.7219 0.09375 4.90384 0.0937499 2.95351 0.615513C2.42343 0.758033 1.94018 1.03752 1.5523 1.42589C1.16441 1.81427 0.885538 2.29787 0.743687 2.82812C0.221924 4.78125 0.221924 8.85491 0.221924 8.85491C0.221924 8.85491 0.221924 12.9286 0.743687 14.8789C1.03108 15.9559 1.87929 16.8041 2.95351 17.0915C4.90384 17.6161 12.7219 17.6161 12.7219 17.6161C12.7219 17.6161 20.54 17.6161 22.4903 17.0915C23.5673 16.8041 24.4128 15.9559 24.7002 14.8789C25.2219 12.9286 25.2219 8.85491 25.2219 8.85491C25.2219 8.85491 25.2219 4.78125 24.7002 2.83092ZM10.2387 12.5937V5.11607L16.7119 8.82701L10.2387 12.5937Z" fill="white"/>
</svg>
